<?xml version="1.0" encoding="UTF-8"?>
<svg xmlns="http://www.w3.org/2000/svg" xmlns:xlink="http://www.w3.org/1999/xlink" width="500px" height="333px" viewBox="0 0 499 333" version="1.1">
<g id="surface1">
<path style=" stroke:none;fill-rule:nonzero;fill:rgb(0%,34.901961%,61.176471%);fill-opacity:1;" d="M 345.53125 222 C 347.078125 219.320312 348.039062 216.296875 348.039062 213.585938 L 348.039062 119.414062 C 348.039062 116.703125 347.078125 113.683594 345.53125 111 L 249.5 166.5 Z M 345.53125 222 "/>
<path style=" stroke:none;fill-rule:nonzero;fill:rgb(0%,26.666667%,50.980392%);fill-opacity:1;" d="M 258.035156 275.464844 L 339.507812 228.378906 C 341.851562 227.023438 343.984375 224.683594 345.53125 222 L 249.5 166.5 L 153.46875 222 C 155.015625 224.683594 157.148438 227.023438 159.492188 228.378906 L 240.964844 275.464844 C 245.660156 278.179688 253.339844 278.179688 258.035156 275.464844 Z M 258.035156 275.464844 "/>
<path style=" stroke:none;fill-rule:nonzero;fill:rgb(39.607843%,60.392157%,82.352941%);fill-opacity:1;" d="M 345.53125 111 C 343.984375 108.316406 341.851562 105.976562 339.507812 104.621094 L 258.035156 57.535156 C 253.339844 54.820312 245.660156 54.820312 240.964844 57.535156 L 159.492188 104.621094 C 154.800781 107.332031 150.960938 113.988281 150.960938 119.414062 L 150.960938 213.585938 C 150.960938 216.296875 151.921875 219.320312 153.46875 222 Z M 345.53125 111 "/>
<path style=" stroke:none;fill-rule:nonzero;fill:rgb(100%,100%,100%);fill-opacity:1;" d="M 249.5 232.257812 C 213.277344 232.257812 183.808594 202.761719 183.808594 166.5 C 183.808594 130.242188 213.277344 100.742188 249.5 100.742188 C 272.875 100.742188 294.671875 113.332031 306.390625 133.601562 L 277.960938 150.066406 C 272.09375 139.921875 261.191406 133.621094 249.5 133.621094 C 231.386719 133.621094 216.652344 148.371094 216.652344 166.5 C 216.652344 184.628906 231.386719 199.378906 249.5 199.378906 C 261.191406 199.378906 272.097656 193.078125 277.960938 182.929688 L 306.390625 199.398438 C 294.675781 219.667969 272.875 232.257812 249.5 232.257812 Z M 249.5 232.257812 "/>
<path style=" stroke:none;fill-rule:nonzero;fill:rgb(100%,100%,100%);fill-opacity:1;" d="M 307.894531 155.539062 L 300.59375 155.539062 L 300.59375 162.847656 L 293.296875 162.847656 L 293.296875 170.152344 L 300.59375 170.152344 L 300.59375 177.460938 L 307.894531 177.460938 L 307.894531 170.152344 L 315.191406 170.152344 L 315.191406 162.847656 L 307.894531 162.847656 Z M 335.265625 155.539062 L 327.96875 155.539062 L 327.96875 162.847656 L 320.667969 162.847656 L 320.667969 170.152344 L 327.96875 170.152344 L 327.96875 177.460938 L 335.265625 177.460938 L 335.265625 170.152344 L 342.566406 170.152344 L 342.566406 162.847656 L 335.265625 162.847656 Z M 335.265625 155.539062 "/>
</g>
</svg>
