<?xml version="1.0" encoding="UTF-8"?>
<svg xmlns="http://www.w3.org/2000/svg" xmlns:xlink="http://www.w3.org/1999/xlink" width="150px" height="100px" viewBox="0 0 150 100" version="1.1">
<g id="surface1">
<path style=" stroke:none;fill-rule:nonzero;fill:rgb(0%,34.901961%,61.176471%);fill-opacity:1;" d="M 103.867188 66.667969 C 104.332031 65.863281 104.621094 64.953125 104.621094 64.140625 L 104.621094 35.859375 C 104.621094 35.046875 104.332031 34.136719 103.867188 33.332031 L 75 50 Z M 103.867188 66.667969 "/>
<path style=" stroke:none;fill-rule:nonzero;fill:rgb(0%,26.666667%,50.980392%);fill-opacity:1;" d="M 77.566406 82.722656 L 102.054688 68.582031 C 102.761719 68.175781 103.402344 67.472656 103.867188 66.667969 L 75 50 L 46.132812 66.667969 C 46.597656 67.472656 47.238281 68.175781 47.945312 68.582031 L 72.433594 82.722656 C 73.84375 83.535156 76.15625 83.535156 77.566406 82.722656 Z M 77.566406 82.722656 "/>
<path style=" stroke:none;fill-rule:nonzero;fill:rgb(39.607843%,60.392157%,82.352941%);fill-opacity:1;" d="M 103.867188 33.332031 C 103.402344 32.527344 102.761719 31.824219 102.054688 31.417969 L 77.566406 17.277344 C 76.15625 16.464844 73.84375 16.464844 72.433594 17.277344 L 47.945312 31.417969 C 46.53125 32.230469 45.378906 34.230469 45.378906 35.859375 L 45.378906 64.140625 C 45.378906 64.953125 45.667969 65.863281 46.132812 66.667969 Z M 103.867188 33.332031 "/>
<path style=" stroke:none;fill-rule:nonzero;fill:rgb(100%,100%,100%);fill-opacity:1;" d="M 75 69.746094 C 64.109375 69.746094 55.253906 60.890625 55.253906 50 C 55.253906 39.113281 64.109375 30.253906 75 30.253906 C 82.027344 30.253906 88.578125 34.035156 92.101562 40.121094 L 83.554688 45.066406 C 81.792969 42.019531 78.515625 40.125 75 40.125 C 69.554688 40.125 65.125 44.554688 65.125 50 C 65.125 55.445312 69.554688 59.875 75 59.875 C 78.515625 59.875 81.792969 57.980469 83.554688 54.933594 L 92.101562 59.878906 C 88.578125 65.964844 82.027344 69.746094 75 69.746094 Z M 75 69.746094 "/>
<path style=" stroke:none;fill-rule:nonzero;fill:rgb(100%,100%,100%);fill-opacity:1;" d="M 92.554688 46.707031 L 90.359375 46.707031 L 90.359375 48.902344 L 88.164062 48.902344 L 88.164062 51.097656 L 90.359375 51.097656 L 90.359375 53.292969 L 92.554688 53.292969 L 92.554688 51.097656 L 94.746094 51.097656 L 94.746094 48.902344 L 92.554688 48.902344 Z M 100.78125 46.707031 L 98.585938 46.707031 L 98.585938 48.902344 L 96.394531 48.902344 L 96.394531 51.097656 L 98.585938 51.097656 L 98.585938 53.292969 L 100.78125 53.292969 L 100.78125 51.097656 L 102.976562 51.097656 L 102.976562 48.902344 L 100.78125 48.902344 Z M 100.78125 46.707031 "/>
</g>
</svg>
